<svg xmlns="http://www.w3.org/2000/svg" width="691" height="220" viewBox="0 0 691 220">
<g>
<path d="M 561.00 83.00 L 561.00 142.00 L 549.00 142.00 L 549.00 83.00 ZM 133.73 165.19 C125.61,170.04 118.86,174.00 118.73,174.00 C117.82,173.98 112.01,169.87 112.03,169.26 C112.10,167.64 116.00,163.88 116.98,164.49 C118.00,165.12 131.64,158.18 143.50,151.00 C146.80,149.00 152.76,145.62 156.75,143.47 L 164.00 139.58 L 164.00 134.91 C164.00,130.91 164.32,130.15 166.25,129.63 C170.82,128.41 171.00,128.66 171.00,136.33 L 171.00 143.67 L 159.75 150.02 C153.56,153.52 141.86,160.34 133.73,165.19 ZM 123.89 117.40 C121.38,120.13 115.74,120.08 113.65,117.31 C112.74,116.11 112.00,114.45 112.00,113.62 C112.00,112.79 111.56,111.84 111.01,111.51 C110.41,111.13 110.69,109.84 111.74,108.20 C114.08,104.51 114.93,104.03 119.18,104.02 C122.95,104.00 126.00,106.03 126.00,108.57 C126.00,109.36 126.44,110.00 126.98,110.00 C128.24,110.00 126.21,114.87 123.89,117.40 Z" fill="rgb(30,151,214)"/>
<path d="M 123.89 117.40 C124.71,116.51 125.48,115.34 126.10,114.19 C125.58,115.31 124.65,116.73 123.77,117.69 C121.93,119.70 121.82,120.79 122.37,131.00 C122.80,138.95 123.41,142.55 124.49,143.63 C126.87,146.02 126.44,152.58 123.78,154.44 C122.56,155.30 120.32,156.00 118.82,156.00 C116.07,156.00 112.00,152.68 112.00,150.44 C112.00,149.52 99.96,142.13 87.00,135.10 C85.78,134.44 85.45,131.22 85.23,117.78 C84.98,102.80 84.77,101.10 82.98,99.48 C78.44,95.38 81.98,88.00 88.48,88.00 C90.75,88.00 94.15,86.67 98.23,84.20 C108.63,77.89 117.75,73.00 119.13,73.00 C119.85,73.00 126.18,76.38 133.19,80.50 C143.32,86.46 146.78,88.00 149.95,88.00 C153.37,88.00 154.17,88.43 155.47,90.95 C157.48,94.82 157.40,96.22 155.03,99.24 C153.27,101.47 153.02,103.58 152.78,118.09 L 152.50 134.43 L 141.60 140.51 L 139.30 138.21 C138.04,136.95 137.00,135.75 137.00,135.55 C137.00,135.35 139.02,134.00 141.50,132.55 L 146.00 129.92 L 146.00 115.89 C146.00,114.64 146.01,113.48 146.01,112.43 C146.04,106.42 146.06,103.54 144.83,102.84 C143.69,102.19 141.49,103.40 137.26,105.74 C136.46,106.19 135.58,106.67 134.62,107.19 C130.74,109.30 127.85,111.36 126.80,112.72 C127.42,111.20 127.61,110.00 126.98,110.00 C126.44,110.00 126.00,109.36 126.00,108.57 C126.00,106.60 124.16,104.93 121.56,104.29 C125.57,104.04 127.83,103.18 133.17,100.31 C138.34,97.53 140.50,95.80 140.50,94.46 C140.50,93.08 137.48,90.81 129.65,86.29 L 118.79 80.03 L 111.65 84.18 C107.72,86.45 102.54,89.65 100.15,91.27 C94.99,94.79 95.13,95.03 105.60,100.67 C110.40,103.26 112.43,104.12 115.71,104.33 C114.14,104.78 113.25,105.82 111.74,108.20 C110.69,109.84 110.41,111.13 111.01,111.51 C111.56,111.84 112.00,112.79 112.00,113.62 C112.00,114.33 112.55,115.66 113.28,116.78 C112.59,116.04 111.96,114.75 111.81,113.70 C111.59,112.17 109.04,110.17 103.00,106.80 C98.32,104.18 93.93,102.03 93.22,102.02 C92.23,102.00 92.01,105.20 92.22,116.25 L 92.50 130.50 L 103.00 136.24 C108.78,139.40 113.84,141.99 114.25,141.99 C114.66,142.00 115.00,136.66 115.00,130.12 C115.00,122.73 114.78,119.33 114.11,117.83 C116.47,120.08 121.55,119.95 123.89,117.40 ZM 209.00 122.00 L 209.00 143.00 L 203.67 143.00 C200.73,143.00 198.03,142.70 197.67,142.33 C197.30,141.97 197.00,128.47 197.00,112.33 L 197.00 83.00 L 210.91 83.00 L 214.20 87.47 C216.02,89.94 222.23,98.75 228.00,107.07 L 238.50 122.19 L 239.18 117.85 C239.55,115.46 239.89,106.64 239.93,98.25 L 240.00 83.00 L 252.03 83.00 L 251.50 142.50 L 238.50 142.50 L 227.30 126.00 C221.14,116.93 214.84,107.60 213.30,105.29 C211.76,102.97 210.16,101.06 209.75,101.04 C209.34,101.02 209.00,110.45 209.00,122.00 ZM 579.90 141.56 C578.21,142.61 570.39,143.01 569.07,142.12 C567.83,141.29 567.85,140.63 569.23,137.33 C572.34,129.85 580.90,109.31 586.25,96.50 L 591.67 83.50 L 598.66 83.21 C605.44,82.93 605.68,83.00 606.94,85.71 C611.64,95.79 629.25,138.00 629.70,140.25 C630.25,142.98 630.21,143.00 624.88,142.98 C621.92,142.98 619.02,142.64 618.44,142.23 C617.85,141.83 616.34,138.91 615.07,135.75 L 612.77 130.00 L 584.41 130.00 L 582.53 135.55 C581.49,138.61 580.31,141.31 579.90,141.56 ZM 109.00 159.85 C112.34,161.85 115.32,163.59 116.84,164.43 C115.67,164.20 112.10,167.71 112.03,169.26 C112.02,169.56 113.34,170.65 114.82,171.71 C112.96,170.58 110.57,169.14 108.00,167.56 C102.22,164.03 90.53,157.12 82.00,152.22 L 66.50 143.31 L 66.24 111.66 C66.09,94.25 66.34,80.00 66.79,80.00 C67.53,80.00 76.44,74.96 107.17,57.18 C113.03,53.78 118.43,51.01 119.17,51.02 C119.90,51.03 131.75,57.53 145.50,65.46 L 170.50 79.88 L 170.76 111.77 L 170.93 132.36 C170.72,128.62 169.84,128.67 166.25,129.63 C164.32,130.15 164.00,130.91 164.00,134.91 L 164.00 84.39 L 147.75 75.02 C138.81,69.87 129.02,64.16 125.98,62.33 C122.94,60.50 119.79,59.01 118.98,59.02 C118.17,59.03 113.18,61.62 107.90,64.77 C102.62,67.92 95.52,72.07 92.11,74.00 C88.70,75.93 83.11,79.14 79.70,81.14 L 73.50 84.78 L 73.23 111.74 L 72.97 138.70 L 81.23 143.51 C95.49,151.81 100.25,154.61 109.00,159.85 ZM 436.98 141.22 C432.12,143.60 420.59,144.35 415.32,142.62 C403.95,138.90 399.56,132.60 399.54,120.00 C399.53,109.28 402.49,103.52 409.93,99.75 C414.34,97.52 416.70,97.00 422.47,97.00 C436.30,97.00 443.29,103.64 443.43,116.94 L 443.50 123.50 L 427.75 123.78 C413.22,124.03 412.00,124.19 412.00,125.89 C412.00,129.03 415.90,132.90 420.26,134.07 C424.30,135.16 427.38,134.71 438.81,131.40 C441.01,130.77 441.11,130.95 440.81,135.12 C440.54,139.01 440.11,139.69 436.98,141.22 ZM 292.20 142.90 C278.34,145.78 267.86,141.67 262.62,131.30 C261.54,129.16 261.00,125.49 261.00,120.26 C261.00,110.91 263.37,105.31 269.34,100.56 C272.86,97.76 273.92,97.47 281.84,97.19 C289.30,96.93 291.12,97.20 294.98,99.19 C297.44,100.46 300.25,102.89 301.23,104.60 C303.52,108.59 305.43,118.14 304.61,121.43 L 303.96 124.00 L 287.98 124.00 C279.19,124.00 272.00,124.38 272.00,124.85 C272.00,127.17 276.95,132.63 280.03,133.72 C284.02,135.13 292.15,134.46 296.20,132.38 C300.22,130.32 300.75,130.61 301.18,135.12 C301.65,140.02 300.26,141.23 292.20,142.90 ZM 506.74 128.50 L 506.50 142.50 L 501.46 142.79 C498.69,142.96 496.10,142.77 495.71,142.38 C495.32,141.99 495.00,127.79 495.00,110.83 L 495.00 80.00 L 507.00 80.00 L 507.00 100.89 L 511.64 98.84 C517.66,96.17 527.61,96.57 531.74,99.64 C536.58,103.23 536.97,105.12 536.99,124.80 L 537.00 143.10 L 526.50 142.50 L 526.26 128.50 C525.99,112.91 525.69,110.83 523.43,108.57 C519.92,105.06 508.57,107.70 507.51,112.27 C507.22,113.50 506.88,120.80 506.74,128.50 ZM 382.03 93.07 L 381.50 142.50 L 376.46 142.79 C373.69,142.96 371.10,142.77 370.71,142.38 C370.32,141.99 370.00,130.72 370.00,117.33 L 370.00 93.00 L 351.00 93.00 L 351.00 83.00 L 402.11 83.00 L 401.80 87.75 L 401.50 92.50 ZM 320.15 141.65 C319.29,142.54 317.23,142.96 314.57,142.78 C311.05,142.55 309.03,142.51 308.52,141.61 C307.88,140.49 309.58,138.04 313.60,132.23 C313.91,131.79 314.23,131.33 314.56,130.85 C318.74,124.80 321.93,119.25 321.65,118.52 C321.36,117.78 318.40,113.06 315.07,108.02 C311.73,102.98 309.00,98.64 309.00,98.38 C309.00,98.12 312.04,98.04 315.75,98.20 L 322.50 98.50 L 325.09 103.31 C329.66,111.78 329.99,111.82 334.48,104.47 L 338.44 98.00 L 344.72 98.00 C348.17,98.00 351.00,98.21 351.00,98.48 C351.00,98.74 347.87,103.50 344.05,109.06 L 337.11 119.17 L 344.58 130.26 C352.83,142.48 352.83,142.96 344.72,142.98 L 339.94 143.00 L 335.22 135.51 C332.62,131.38 330.16,128.01 329.75,128.01 C329.34,128.00 327.32,130.75 325.25,134.12 C323.19,137.48 320.89,140.87 320.15,141.65 ZM 483.86 141.91 C474.00,145.39 461.72,143.57 455.92,137.77 C451.27,133.12 449.70,128.63 449.66,119.91 C449.62,109.50 452.48,103.62 459.50,99.71 C464.16,97.12 465.15,96.95 474.13,97.24 C479.64,97.43 484.38,98.07 485.20,98.75 C486.60,99.91 486.96,108.72 485.60,108.32 C485.25,108.22 482.48,107.62 479.44,106.99 C472.71,105.59 466.68,107.15 463.81,111.02 C461.55,114.08 461.06,123.32 462.92,127.80 C465.15,133.19 474.13,135.59 481.90,132.88 C483.66,132.27 485.28,131.95 485.51,132.17 C485.73,132.39 486.20,134.41 486.56,136.65 C487.19,140.59 487.10,140.77 483.86,141.91 ZM 590.00 118.75 C590.00,119.66 592.46,120.00 599.00,120.00 C603.95,120.00 608.00,119.59 608.00,119.09 C608.00,118.17 599.98,96.86 599.34,96.08 C599.15,95.85 598.75,95.91 598.45,96.22 C597.60,97.07 590.00,117.33 590.00,118.75 ZM 411.63 115.21 C411.90,115.64 416.59,116.00 422.06,116.00 L 432.00 116.00 L 432.00 113.07 C432.00,107.33 423.43,104.03 416.61,107.13 C414.10,108.28 410.73,113.75 411.63,115.21 ZM 272.61 115.18 C272.89,115.63 277.59,116.00 283.06,116.00 C292.84,116.00 293.00,115.96 293.00,113.63 C293.00,112.33 292.07,110.08 290.93,108.63 C289.16,106.38 288.10,106.00 283.68,106.03 C280.83,106.05 277.72,106.65 276.77,107.38 C274.63,109.01 271.93,114.07 272.61,115.18 ZM 128.49 159.47 C134.01,156.46 140.27,152.96 143.50,151.00 C138.45,154.06 133.08,157.07 128.49,159.47 ZM 171.03 143.65 L 171.00 143.67 L 171.00 140.36 Z" fill="rgb(63,70,73)"/>
<path d="M 0.00 110.00 L 0.00 0.00 L 345.50 0.00 L 691.00 0.00 L 691.00 110.00 L 691.00 220.00 L 345.50 220.00 L 0.00 220.00 L 0.00 110.00 ZM 133.73 165.19 C141.86,160.34 153.57,153.52 159.76,150.02 L 171.03 143.65 L 170.76 111.77 L 170.50 79.88 L 145.50 65.46 C131.75,57.53 119.90,51.03 119.17,51.02 C118.43,51.01 113.03,53.78 107.17,57.18 C76.44,74.96 67.53,80.00 66.79,80.00 C66.34,80.00 66.09,94.25 66.24,111.66 L 66.50 143.31 L 82.00 152.22 C90.53,157.12 102.22,164.03 108.00,167.56 C113.78,171.10 118.61,173.99 118.73,173.99 C118.86,174.00 125.61,170.04 133.73,165.19 ZM 292.20 142.90 C300.26,141.23 301.65,140.02 301.18,135.12 C300.75,130.61 300.22,130.32 296.20,132.38 C292.15,134.46 284.02,135.13 280.03,133.72 C276.95,132.63 272.00,127.17 272.00,124.85 C272.00,124.38 279.19,124.00 287.98,124.00 L 303.96 124.00 L 304.61 121.43 C305.43,118.14 303.52,108.59 301.23,104.60 C300.25,102.89 297.44,100.46 294.98,99.19 C291.12,97.20 289.30,96.93 281.84,97.19 C273.92,97.47 272.86,97.76 269.34,100.56 C263.37,105.31 261.00,110.91 261.00,120.26 C261.00,125.49 261.54,129.16 262.62,131.30 C267.86,141.67 278.34,145.78 292.20,142.90 ZM 436.98 141.22 C440.11,139.69 440.54,139.01 440.81,135.12 C441.11,130.95 441.01,130.77 438.81,131.40 C427.38,134.71 424.30,135.16 420.26,134.07 C415.90,132.90 412.00,129.03 412.00,125.89 C412.00,124.19 413.22,124.03 427.75,123.78 L 443.50 123.50 L 443.43 116.94 C443.29,103.64 436.30,97.00 422.47,97.00 C416.70,97.00 414.34,97.52 409.93,99.75 C402.49,103.52 399.53,109.28 399.54,120.00 C399.56,132.60 403.95,138.90 415.32,142.62 C420.59,144.35 432.12,143.60 436.98,141.22 ZM 483.86 141.91 C487.10,140.77 487.19,140.59 486.56,136.65 C486.20,134.41 485.73,132.39 485.51,132.17 C485.28,131.95 483.66,132.27 481.90,132.88 C474.13,135.59 465.15,133.19 462.92,127.80 C461.06,123.32 461.55,114.08 463.81,111.02 C466.68,107.15 472.71,105.59 479.44,106.99 C482.48,107.62 485.25,108.22 485.60,108.32 C486.96,108.72 486.60,99.91 485.20,98.75 C484.38,98.07 479.64,97.43 474.13,97.24 C465.15,96.95 464.16,97.12 459.50,99.71 C452.48,103.62 449.62,109.50 449.66,119.91 C449.70,128.63 451.27,133.12 455.92,137.77 C461.72,143.57 474.00,145.39 483.86,141.91 ZM 209.00 122.00 C209.00,110.45 209.34,101.02 209.75,101.04 C210.16,101.06 211.76,102.97 213.30,105.29 C214.84,107.60 221.14,116.93 227.30,126.00 L 238.50 142.50 L 245.00 142.50 L 251.50 142.50 L 251.76 112.75 L 252.03 83.00 L 246.01 83.00 L 240.00 83.00 L 239.93 98.25 C239.89,106.64 239.55,115.46 239.18,117.85 L 238.50 122.19 L 228.00 107.07 C222.23,98.75 216.02,89.94 214.20,87.47 L 210.91 83.00 L 203.95 83.00 L 197.00 83.00 L 197.00 112.33 C197.00,128.47 197.30,141.97 197.67,142.33 C198.03,142.70 200.73,143.00 203.67,143.00 L 209.00 143.00 L 209.00 122.00 ZM 320.15 141.65 C320.89,140.87 323.19,137.48 325.25,134.12 C327.32,130.75 329.34,128.00 329.75,128.01 C330.16,128.01 332.62,131.38 335.22,135.51 L 339.94 143.00 L 344.72 142.98 C352.83,142.96 352.83,142.48 344.58,130.26 L 337.11 119.17 L 344.05 109.06 C347.87,103.50 351.00,98.74 351.00,98.48 C351.00,98.21 348.17,98.00 344.72,98.00 L 338.44 98.00 L 334.48 104.47 C329.99,111.82 329.66,111.78 325.09,103.31 L 322.50 98.50 L 315.75 98.20 C312.04,98.04 309.00,98.12 309.00,98.38 C309.00,98.64 311.73,102.98 315.07,108.02 C318.40,113.06 321.36,117.78 321.65,118.52 C321.93,119.25 318.74,124.80 314.56,130.85 C306.33,142.75 306.33,142.23 314.57,142.78 C317.23,142.96 319.29,142.54 320.15,141.65 ZM 381.77 117.79 L 382.03 93.07 L 391.77 92.79 L 401.50 92.50 L 401.80 87.75 L 402.11 83.00 L 376.55 83.00 L 351.00 83.00 L 351.00 88.00 L 351.00 93.00 L 360.50 93.00 L 370.00 93.00 L 370.00 117.33 C370.00,130.72 370.32,141.99 370.71,142.38 C371.10,142.77 373.69,142.96 376.46,142.79 L 381.50 142.50 L 381.77 117.79 ZM 506.74 128.50 C506.88,120.80 507.22,113.50 507.51,112.27 C508.57,107.70 519.92,105.06 523.43,108.57 C525.69,110.83 525.99,112.91 526.26,128.50 L 526.50 142.50 L 531.75 142.80 L 537.00 143.10 L 536.99 124.80 C536.97,105.12 536.58,103.23 531.74,99.64 C527.61,96.57 517.66,96.17 511.64,98.84 L 507.00 100.89 L 507.00 90.44 L 507.00 80.00 L 501.00 80.00 L 495.00 80.00 L 495.00 110.83 C495.00,127.79 495.32,141.99 495.71,142.38 C496.10,142.77 498.69,142.96 501.46,142.79 L 506.50 142.50 L 506.74 128.50 ZM 579.90 141.56 C580.31,141.31 581.49,138.61 582.53,135.55 L 584.41 130.00 L 598.59 130.00 L 612.77 130.00 L 615.07 135.75 C616.34,138.91 617.85,141.83 618.44,142.23 C619.02,142.64 621.92,142.98 624.88,142.98 C630.21,143.00 630.25,142.98 629.70,140.25 C629.25,138.00 611.64,95.79 606.94,85.71 C605.68,83.00 605.44,82.93 598.66,83.21 L 591.67 83.50 L 586.25 96.50 C580.90,109.31 572.34,129.85 569.23,137.33 C567.85,140.63 567.83,141.29 569.07,142.12 C570.39,143.01 578.21,142.61 579.90,141.56 ZM 561.00 112.50 L 561.00 83.00 L 555.00 83.00 L 549.00 83.00 L 549.00 112.50 L 549.00 142.00 L 555.00 142.00 L 561.00 142.00 L 561.00 112.50 ZM 109.00 159.85 C100.25,154.61 95.49,151.81 81.23,143.51 L 72.97 138.70 L 73.23 111.74 L 73.50 84.78 L 79.70 81.14 C83.11,79.14 88.70,75.93 92.11,74.00 C95.52,72.07 102.62,67.92 107.90,64.77 C113.18,61.62 118.17,59.03 118.98,59.02 C119.79,59.01 122.94,60.50 125.98,62.33 C129.02,64.16 138.81,69.87 147.75,75.02 L 164.00 84.39 L 164.00 111.99 L 164.00 139.58 L 156.75 143.47 C152.76,145.62 146.80,149.00 143.50,151.00 C137.03,154.91 118.49,165.02 117.88,164.97 C117.67,164.95 113.68,162.65 109.00,159.85 ZM 123.78 154.44 C126.44,152.58 126.87,146.02 124.49,143.63 C123.41,142.55 122.80,138.95 122.37,131.00 C121.82,120.79 121.93,119.70 123.77,117.69 C124.87,116.49 126.05,114.56 126.40,113.41 C126.79,112.13 130.01,109.70 134.62,107.19 C147.03,100.45 146.00,99.66 146.00,115.89 L 146.00 129.92 L 141.50 132.55 C139.02,134.00 137.00,135.35 137.00,135.55 C137.00,135.75 138.04,136.95 139.30,138.21 L 141.60 140.51 L 147.05 137.47 L 152.50 134.43 L 152.78 118.09 C153.02,103.58 153.27,101.47 155.03,99.24 C157.40,96.22 157.48,94.82 155.47,90.95 C154.17,88.43 153.37,88.00 149.95,88.00 C146.78,88.00 143.32,86.46 133.19,80.50 C126.18,76.38 119.85,73.00 119.13,73.00 C117.75,73.00 108.63,77.89 98.23,84.20 C94.15,86.67 90.75,88.00 88.48,88.00 C81.98,88.00 78.44,95.38 82.98,99.48 C84.77,101.10 84.98,102.80 85.23,117.78 C85.45,131.22 85.78,134.44 87.00,135.10 C99.96,142.13 112.00,149.52 112.00,150.44 C112.00,152.68 116.07,156.00 118.82,156.00 C120.32,156.00 122.56,155.30 123.78,154.44 ZM 272.61 115.18 C271.93,114.07 274.63,109.01 276.77,107.38 C277.72,106.65 280.83,106.05 283.68,106.03 C288.10,106.00 289.16,106.38 290.93,108.63 C292.07,110.08 293.00,112.33 293.00,113.63 C293.00,115.96 292.84,116.00 283.06,116.00 C277.59,116.00 272.89,115.63 272.61,115.18 ZM 411.63 115.21 C410.73,113.75 414.10,108.28 416.61,107.13 C423.43,104.03 432.00,107.33 432.00,113.07 L 432.00 116.00 L 422.06 116.00 C416.59,116.00 411.90,115.64 411.63,115.21 ZM 590.00 118.75 C590.00,117.33 597.60,97.07 598.45,96.22 C598.75,95.91 599.15,95.85 599.34,96.08 C599.98,96.86 608.00,118.17 608.00,119.09 C608.00,119.59 603.95,120.00 599.00,120.00 C592.46,120.00 590.00,119.66 590.00,118.75 ZM 103.00 136.24 L 92.50 130.50 L 92.22 116.25 C92.01,105.20 92.23,102.00 93.22,102.02 C93.93,102.03 98.32,104.18 103.00,106.80 C109.04,110.17 111.59,112.17 111.81,113.70 C111.98,114.89 112.77,116.39 113.56,117.05 C114.67,117.97 115.00,121.00 115.00,130.12 C115.00,136.66 114.66,142.00 114.25,141.99 C113.84,141.99 108.78,139.40 103.00,136.24 ZM 105.60 100.67 C95.13,95.03 94.99,94.79 100.15,91.27 C102.54,89.65 107.72,86.45 111.65,84.18 L 118.79 80.03 L 129.65 86.29 C137.48,90.81 140.50,93.08 140.50,94.46 C140.50,95.80 138.34,97.53 133.17,100.31 C126.90,103.68 124.88,104.27 119.26,104.38 C113.43,104.49 111.90,104.07 105.60,100.67 Z" fill="rgb(254,254,254)"/>
</g>
</svg>